<svg xmlns="http://www.w3.org/2000/svg" width="32" height="16" fill="none"><g clip-path="url('#clip0')"><rect width="32" height="16" fill="#7CCE14" rx="8"/><mask id="mask0" width="32" height="16" x="0" y="0" mask-type="alpha" maskUnits="userSpaceOnUse"><rect width="32" height="16" fill="#88DA20" rx="8"/></mask><g mask="url('#mask0')"><path fill="#88DA20" d="m16-9 17.32 30H-1.32z"/><path fill="#72C904" d="m27.5 3 6.495 11.25h-12.99z"/><path fill="#69BB00" d="m7.5-2 3.897 6.75H3.603zM9.5 13l3.897 6.75H5.603z"/></g><path fill="#275227" d="M18.542 5.492c-.528-1.02-1.14-1.74-2.544-1.74s-2.028.72-2.544 1.74l-3.36 6.588h1.836l1.044-2.028h6.048l1.044 2.028h1.848zm-.312 3.036h-4.476l1.392-2.688c.18-.348.408-.564.852-.564s.672.216.852.564z"/></g><defs><clipPath id="clip0"><path fill="#fff" d="M0 0h32v16H0z"/></clipPath></defs></svg>