<svg xmlns="http://www.w3.org/2000/svg" width="32" height="16" fill="none"><g clip-path="url('#clip0')"><rect width="32" height="16" fill="#E3B130" rx="8"/><mask id="mask0" width="32" height="16" x="0" y="0" mask-type="alpha" maskUnits="userSpaceOnUse"><rect width="32" height="16" fill="#E3B130" rx="8"/></mask><g mask="url('#mask0')"><path fill="#EBBD48" d="m16-9 17.32 30H-1.32z"/><path fill="#DCA519" d="m27.5 3 6.495 11.25h-12.99z"/><path fill="#D99D03" d="m7.5-2 3.897 6.75H3.603zM9.5 13l3.897 6.75H5.603z"/></g><path fill="#553A2B" d="M21.173 6.044c0-.612-.192-2.172-3.156-2.172h-7.02v8.208h7.188c2.268 0 3.204-.924 3.204-2.22 0-.936-.492-1.644-1.62-1.968.84-.264 1.404-.816 1.404-1.848m-2.928 2.568c1.128 0 1.452.564 1.452 1.02s-.324.912-1.332.912h-5.712V8.612zm-5.592-1.464V5.384h5.592c.876 0 1.26.372 1.26.9 0 .564-.444.864-1.38.864z"/></g><defs><clipPath id="clip0"><path fill="#fff" d="M0 0h32v16H0z"/></clipPath></defs></svg>