<svg xmlns="http://www.w3.org/2000/svg" width="32" height="16" fill="none"><g clip-path="url('#clip0')"><rect width="32" height="16" fill="#F18252" rx="8"/><mask id="mask0" width="32" height="16" x="0" y="0" mask-type="alpha" maskUnits="userSpaceOnUse"><rect width="32" height="16" fill="#FF8E5D" rx="8"/></mask><g mask="url('#mask0')"><path fill="#FF8E5D" d="m16-9 17.32 30H-1.32z"/><path fill="#EA7948" d="m27.5 3 6.495 11.25h-12.99z"/><path fill="#E67342" d="m7.5-2 3.897 6.75H3.603zM9.5 13l3.897 6.75H5.603z"/></g><path fill="#473625" d="M21.247 3.872h-6.492c-2.953 0-3.96 1.404-3.96 4.104s1.008 4.104 3.96 4.104h6.492V10.4h-6.492c-1.969 0-2.209-.852-2.209-2.424s.24-2.436 2.209-2.436h6.492z"/></g><defs><clipPath id="clip0"><path fill="#fff" d="M0 0h32v16H0z"/></clipPath></defs></svg>