<svg xmlns="http://www.w3.org/2000/svg" width="32" height="16" fill="none"><rect width="32" height="16" fill="#E95353" rx="8"/><mask id="mask0" width="32" height="16" x="0" y="0" mask-type="alpha" maskUnits="userSpaceOnUse"><rect width="32" height="16" fill="#FF5A5A" rx="8"/></mask><g mask="url('#mask0')"><path fill="#FF5A5A" d="m16-9 17.32 30H-1.32z"/><path fill="#DE4949" d="m27.5 3 6.495 11.25h-12.99z"/><path fill="#D63D3D" d="m7.5-2 3.897 6.75H3.603zM9.5 13l3.897 6.75H5.603z"/></g><path fill="#512525" d="M10.838 12.08h6.744c2.94 0 3.948-1.404 3.948-4.104s-1.008-4.104-3.948-4.104h-6.744zm8.94-4.104c0 1.572-.24 2.424-2.196 2.424h-5.028V5.54h5.028c1.956 0 2.196.864 2.196 2.436"/></svg>