<svg xmlns="http://www.w3.org/2000/svg" width="32" height="16" fill="none"><g clip-path="url('#clip0')"><rect width="32" height="16" fill="#00A8B5" rx="8"/><path fill="#095056" fill-opacity=".5" d="M10.548 11.442v1.638h7.667c2.47 0 3.418-1.05 3.418-2.534 0-1.767-1.331-2.42-3.392-2.586l-4.032-.32c-1.434-.115-1.767-.371-1.767-.858 0-.588.487-.819 1.344-.819h7.284V4.325h-7.117c-1.805 0-3.367.653-3.367 2.509 0 1.612 1.178 2.316 3.15 2.47l4.236.333c1.255.102 1.78.397 1.78.986 0 .486-.346.819-1.421.819z"/><mask id="mask0" width="32" height="16" x="0" y="0" mask-type="alpha" maskUnits="userSpaceOnUse"><rect width="32" height="16" fill="#02B5C3" rx="8"/></mask><g mask="url('#mask0')"><path fill="#02B5C3" d="m16-9 17.32 30H-1.32z"/><path fill="#009DAA" d="m27.5 3 6.495 11.25h-12.99z"/><path fill="#0096A2" d="m7.5-2 3.897 6.75H3.603zM9.5 13l3.897 6.75H5.603z"/></g><path fill="#095056" fill-opacity=".5" d="M10.548 11.442v1.638h7.667c2.47 0 3.418-1.05 3.418-2.534 0-1.767-1.331-2.42-3.392-2.586l-4.032-.32c-1.434-.115-1.767-.371-1.767-.858 0-.588.487-.819 1.344-.819h7.284V4.325h-7.117c-1.805 0-3.367.653-3.367 2.509 0 1.612 1.178 2.316 3.15 2.47l4.236.333c1.255.102 1.78.397 1.78.986 0 .486-.346.819-1.421.819z"/><path fill="url('#paint0_linear')" d="M10.548 10.442v1.638h7.667c2.47 0 3.418-1.05 3.418-2.534 0-1.767-1.331-2.42-3.392-2.586l-4.032-.32c-1.434-.115-1.767-.371-1.767-.858 0-.588.487-.819 1.344-.819h7.284V3.325h-7.117c-1.805 0-3.367.653-3.367 2.509 0 1.612 1.178 2.316 3.15 2.47l4.236.333c1.255.102 1.78.397 1.78.985 0 .487-.346.82-1.421.82z"/></g><defs><linearGradient id="paint0_linear" x1="16" x2="16" y1="2.08" y2="16" gradientUnits="userSpaceOnUse"><stop stop-color="#fff"/><stop offset="1" stop-color="#AADFF0"/></linearGradient><clipPath id="clip0"><path fill="#fff" d="M0 0h32v16H0z"/></clipPath></defs></svg>