<svg xmlns="http://www.w3.org/2000/svg" id="svg1" width="15" height="15" version="1.1" viewBox="0 0 3.969 3.969"><g id="layer1" transform="translate(-30.65 -56.397)"><path id="path1" d="m75.421 136.321-40.583-21.684-36.983 24.149a5.54 5.54 33.487 0 1-8.482-5.611l7.759-43.483-36.47-29.382a4.388 4.388 105.487 0 1 2.151-7.764l46.39-6.424L25.76 2.67a4.532 4.532 177.487 0 1 8.313-.365l20.3 41.835 45.203 2.256a5.068 5.068 69.487 0 1 3.26 8.715l-32.62 31.373 12.02 44.415a4.743 4.743 141.487 0 1-6.814 5.422" style="fill:#fff;stroke-width:.264583px" transform="matrix(.02727 .001 -.00095 .0286 31.822 56.374)"/></g></svg>