<svg xmlns="http://www.w3.org/2000/svg" width="32" height="16" fill="none"><g clip-path="url('#clip0')"><rect width="32" height="16" fill="#CE1C9D" rx="8"/><path fill="#5E244E" fill-opacity=".5" d="M5.34 11.442v1.638h7.667c2.47 0 3.417-1.05 3.417-2.534 0-1.767-1.331-2.42-3.392-2.586L9 7.64c-1.434-.115-1.766-.371-1.766-.858 0-.588.486-.819 1.344-.819h7.283V4.325H8.744c-1.805 0-3.366.653-3.366 2.509 0 1.612 1.177 2.316 3.149 2.47l4.236.333c1.255.102 1.78.397 1.78.986 0 .486-.346.819-1.421.819zm10.417 0v1.638h7.667c2.47 0 3.418-1.05 3.418-2.534 0-1.767-1.332-2.42-3.392-2.586l-4.032-.32c-1.434-.115-1.767-.371-1.767-.858 0-.588.487-.819 1.344-.819h7.283V4.325h-7.116c-1.805 0-3.367.653-3.367 2.509 0 1.612 1.178 2.316 3.149 2.47l4.237.333c1.254.102 1.779.397 1.779.986 0 .486-.346.819-1.42.819z"/><mask id="mask0" width="32" height="16" x="0" y="0" mask-type="alpha" maskUnits="userSpaceOnUse"><rect width="32" height="16" fill="#DE31AE" rx="8"/></mask><g mask="url('#mask0')"><path fill="#DE31AE" d="m16-9 17.32 30H-1.32z"/><path fill="#C30B90" d="m27.5 3 6.495 11.25h-12.99z"/><path fill="#BE0089" d="m7.5-2 3.897 6.75H3.603zM9.5 13l3.897 6.75H5.603z"/></g><path fill="#5E244E" fill-opacity=".5" d="M5.34 11.442v1.638h7.667c2.47 0 3.417-1.05 3.417-2.534 0-1.767-1.331-2.42-3.392-2.586L9 7.64c-1.434-.115-1.766-.371-1.766-.858 0-.588.486-.819 1.344-.819h7.283V4.325H8.744c-1.805 0-3.366.653-3.366 2.509 0 1.612 1.177 2.316 3.149 2.47l4.236.333c1.255.102 1.78.397 1.78.986 0 .486-.346.819-1.421.819zm10.417 0v1.638h7.667c2.47 0 3.418-1.05 3.418-2.534 0-1.767-1.332-2.42-3.392-2.586l-4.032-.32c-1.434-.115-1.767-.371-1.767-.858 0-.588.487-.819 1.344-.819h7.283V4.325h-7.116c-1.805 0-3.367.653-3.367 2.509 0 1.612 1.178 2.316 3.149 2.47l4.237.333c1.254.102 1.779.397 1.779.986 0 .486-.346.819-1.42.819z"/><path fill="url('#paint0_linear')" d="M5.34 10.442v1.638h7.667c2.47 0 3.417-1.05 3.417-2.534 0-1.767-1.331-2.42-3.392-2.586L9 6.64c-1.434-.115-1.766-.371-1.766-.858 0-.588.486-.819 1.344-.819h7.283V3.325H8.744c-1.805 0-3.366.653-3.366 2.509 0 1.612 1.177 2.316 3.149 2.47l4.236.333c1.255.102 1.78.397 1.78.985 0 .487-.346.82-1.421.82zm10.417 0v1.638h7.667c2.47 0 3.418-1.05 3.418-2.534 0-1.767-1.332-2.42-3.392-2.586l-4.032-.32c-1.434-.115-1.767-.371-1.767-.858 0-.588.487-.819 1.344-.819h7.283V3.325h-7.116c-1.805 0-3.367.653-3.367 2.509 0 1.612 1.178 2.316 3.149 2.47l4.237.333c1.254.102 1.779.397 1.779.985 0 .487-.346.82-1.42.82z"/></g><defs><linearGradient id="paint0_linear" x1="16" x2="16" y1="2.08" y2="16" gradientUnits="userSpaceOnUse"><stop stop-color="#fff"/><stop offset="1" stop-color="#AADFF0"/></linearGradient><clipPath id="clip0"><path fill="#fff" d="M0 0h32v16H0z"/></clipPath></defs></svg>