<?xml version="1.0" encoding="UTF-8" standalone="no"?>
<svg
   width="17.38085"
   height="14.954357"
   id="down-arrow"
   version="1.1"
   xmlns="http://www.w3.org/2000/svg"
   xmlns:svg="http://www.w3.org/2000/svg">
  <defs
     id="defs1">
    <linearGradient
       id="swatch2">
      <stop
         style="stop-color:#ffffff;stop-opacity:1;"
         offset="0"
         id="stop2" />
    </linearGradient>
    <linearGradient
       id="swatch1">
      <stop
         style="stop-color:#ffffff;stop-opacity:1;"
         offset="0"
         id="stop1" />
    </linearGradient>
  </defs>
  <path
     d="M 8.2380574,1.7017664 2.4100335,7.4373739 8.1456394,13.265398 A 1,1 0 0 1 6.7203835,14.668053 L 0.28642653,8.1304246 A 0.992,0.992 0 0 1 1.1352633e-4,7.4181127 0.997,0.997 0 0 1 0.29777853,6.710469 L 6.8354035,0.27651138 A 1,1 0 0 1 8.2380574,1.7017664 Z"
     id="path1-7"
     style="fill:#ffffff;fill-opacity:1" />
  <path
     d="m 17.094572,1.7004281 -5.828023,5.7356075 5.735605,5.8280234 a 1,1 0 0 1 -1.425255,1.402655 L 9.1429424,8.1290863 A 0.992,0.992 0 0 1 8.8566294,7.4167744 0.997,0.997 0 0 1 9.1542944,6.7091307 L 15.691918,0.27517308 a 1,1 0 0 1 1.402654,1.42525502 z"
     id="path1"
     style="fill:#ffffff;fill-opacity:1" />
</svg>
