<?xml version="1.0" encoding="UTF-8" standalone="no"?>
<!-- Created with Inkscape (http://www.inkscape.org/) -->

<svg
   width="3.96875mm"
   height="3.96875mm"
   viewBox="0 0 3.96875 3.96875"
   version="1.1"
   id="svg1"
   xmlns="http://www.w3.org/2000/svg"
   xmlns:svg="http://www.w3.org/2000/svg">
  <defs
     id="defs1" />
  <g
     id="layer1"
     transform="translate(-30.650839,-56.396527)">
    <path
       style="fill:#ffffff;stroke-width:0.264583"
       id="path1"
       d="M 75.421098,136.32134 34.838286,114.63705 -2.1454103,138.78592 a 5.5391236,5.5391236 33.486822 0 1 -8.4814057,-5.61091 L -2.8683471,89.692048 -39.337875,60.309933 a 4.3882244,4.3882244 105.48682 0 1 2.151203,-7.763921 L 9.2037733,46.122478 25.75936,2.6700286 a 4.5323649,4.5323649 177.48682 0 1 8.313062,-0.3648719 l 20.298965,41.8348523 45.203211,2.255945 a 5.0682066,5.0682066 69.486822 0 1 3.260622,8.714824 L 70.214388,86.484346 82.234194,130.8994 a 4.7426987,4.7426987 141.48682 0 1 -6.813096,5.42194 z"
       transform="matrix(0.02726584,9.9894697e-4,-9.4666563e-4,0.02859321,31.821932,56.373749)" />
  </g>
</svg>
